<svg width="25" height="25" viewBox="0 0 25 25" fill="none" xmlns="http://www.w3.org/2000/svg">
<g clip-path="url(#clip0_4726_4)">
<path d="M21.1353 10.0205C21.1353 17.0205 12.1353 23.0205 12.1353 23.0205C12.1353 23.0205 3.13525 17.0205 3.13525 10.0205C3.13525 7.63354 4.08347 5.34435 5.77129 3.65652C7.45912 1.9687 9.74831 1.02048 12.1353 1.02048C14.5222 1.02048 16.8114 1.9687 18.4992 3.65652C20.187 5.34435 21.1353 7.63354 21.1353 10.0205Z" stroke="black" stroke-width="2" stroke-linecap="round" stroke-linejoin="round"/>
<path d="M12.1353 13.0205C13.7921 13.0205 15.1353 11.6773 15.1353 10.0205C15.1353 8.36363 13.7921 7.02048 12.1353 7.02048C10.4784 7.02048 9.13525 8.36363 9.13525 10.0205C9.13525 11.6773 10.4784 13.0205 12.1353 13.0205Z" fill="black"/>
</g>
<defs>
<clipPath id="clip0_4726_4">
<rect width="24" height="24" fill="white" transform="translate(0.135254 0.0204849)"/>
</clipPath>
</defs>
</svg>
